<?xml version="1.0" encoding="UTF-8" standalone="no"?>
<svg
   xmlns:dc="http://purl.org/dc/elements/1.1/"
   xmlns:cc="http://creativecommons.org/ns#"
   xmlns:rdf="http://www.w3.org/1999/02/22-rdf-syntax-ns#"
   xmlns:svg="http://www.w3.org/2000/svg"
   xmlns="http://www.w3.org/2000/svg"
   xmlns:sodipodi="http://sodipodi.sourceforge.net/DTD/sodipodi-0.dtd"
   xmlns:inkscape="http://www.inkscape.org/namespaces/inkscape"
   version="1.0"
   width="415.70984mm"
   height="400.62085mm"
   id="svg4178"
   inkscape:version="0.91 r13725"
   viewBox="0 0 415.70983 400.62085"
   sodipodi:docname="WB-1984-1998.svg">
  <metadata
     id="metadata4191">
    <rdf:RDF>
      <cc:Work
         rdf:about="">
        <dc:format>image/svg+xml</dc:format>
        <dc:type
           rdf:resource="http://purl.org/dc/dcmitype/StillImage" />
        <dc:title></dc:title>
      </cc:Work>
    </rdf:RDF>
  </metadata>
  <sodipodi:namedview
     pagecolor="#ffffff"
     bordercolor="#666666"
     borderopacity="1"
     objecttolerance="10"
     gridtolerance="10"
     guidetolerance="10"
     inkscape:pageopacity="0"
     inkscape:pageshadow="2"
     inkscape:window-width="1920"
     inkscape:window-height="1061"
     id="namedview4189"
     inkscape:document-units="mm"
     showgrid="false"
     fit-margin-top="0"
     fit-margin-left="0"
     fit-margin-right="0"
     fit-margin-bottom="0"
     inkscape:zoom="0.11313708"
     inkscape:cx="-1601.2739"
     inkscape:cy="1680.1939"
     inkscape:window-x="1276"
     inkscape:window-y="-4"
     inkscape:window-maximized="1"
     inkscape:current-layer="svg4178" />
  <defs
     id="defs4180">
    <pattern
       id="EMFhbasepattern"
       patternUnits="userSpaceOnUse"
       width="6"
       height="6"
       x="0"
       y="0" />
    <pattern
       y="0"
       x="0"
       height="6"
       width="6"
       patternUnits="userSpaceOnUse"
       id="EMFhbasepattern-5" />
    <pattern
       y="0"
       x="0"
       height="6"
       width="6"
       patternUnits="userSpaceOnUse"
       id="EMFhbasepattern-2" />
  </defs>
  <g
     id="g4770"
     transform="matrix(0.10859126,0,0,0.10859126,-1.3020812,-1.3403771)"
     style="fill:#000000">
    <path
       inkscape:connector-curvature="0"
       id="path4759"
       d="m 3530.5436,700.74931 -265.5429,-88.87178 0,-170.33804 L 1926.2654,12.343324 586.83596,441.53949 l 0,170.33804 -265.557,88.87178 0,183.73795 L 11.990663,989.584 c 3.174012,116.38 11.637997,229.585 27.155253,340.3233 C 176.68607,2339.944 805.84322,3130.6347 1926.2654,3701.5984 3046.3349,3130.6347 3674.7873,2339.944 3812.3142,1329.9073 c 15.5222,-110.7383 24.6945,-223.9433 27.8836,-340.3233 l -309.6542,-105.09674 0,-183.73795 z m -517.0029,-110.73836 0,178.80189 278.6097,101.92173 0,172.80753 288.1207,105.0939 c -6.6887,61.0108 -15.5222,121.316 -25.0331,181.2713 C 3399.7053,2241.55 2856.5969,2947.5853 1926.2654,3448.3887 994.87284,2947.5853 451.76722,2241.55 296.2402,1329.9073 286.36524,1269.952 278.2539,1209.6468 271.2006,1148.636 l 287.42442,-105.0939 0,-172.80753 280.01525,-101.92173 0,-178.80189 1087.62513,-342.79162 1087.2753,342.79162 z"
       style="fill:#000000;stroke:none" />
    <path
       inkscape:connector-curvature="0"
       id="path4761"
       d="m 1261.841,786.79886 c -134.0133,27.86098 -239.1072,58.89696 -314.93182,93.81067 44.08311,491.96977 126.25492,887.66227 246.51542,1188.13297 l -70.8857,77.9385 C 933.86204,1803.8911 809.01822,1455.4567 748.0046,1102.0834 c -118.8466,29.2721 -204.89898,62.7747 -257.79871,100.8634 89.22455,536.0529 292.36247,1013.9172 611.52471,1432.5318 l 197.4935,-169.2797 c 162.227,369.5982 337.5011,622.808 526.8835,760.3349 l 0,-2698.59198 c -106.505,4.93889 -213.3628,33.5026 -320.5734,86.40233 l 0,1511.53145 C 1361.9988,1669.8778 1280.5325,1224.105 1261.841,786.79886 Z"
       style="fill:#000000;fill-opacity:1;fill-rule:evenodd;stroke:none" />
    <path
       inkscape:connector-curvature="0"
       id="path4763"
       d="m 3106.9844,2047.5815 c 23.6503,-174.9213 -66.6326,-305.4068 -270.8486,-391.1064 168.5713,-102.6245 250.7544,-242.6349 247.2266,-418.6146 C 3056.5513,888.7206 2704.2477,649.26069 2028.1872,519.1252 l 0,2715.1697 c 667.5966,-426.0116 1026.953,-821.7013 1078.7972,-1186.7134 z m -744.1184,562.5056 0,-565.6778 c 214.4212,-174.2186 341.0289,-174.5714 378.7648,-1.0583 38.0888,172.8075 -88.1662,361.8343 -378.7648,566.7361 z m 0,-1691.39168 c 290.5986,89.93008 417.5591,210.89618 380.5287,361.83708 -36.6776,151.2937 -163.2853,286.3653 -380.5287,405.5675 l 0,-767.40458 z"
       style="fill:#000000;fill-opacity:1;fill-rule:evenodd;stroke:none" />
  </g>
</svg>
