<?xml version="1.0" standalone="no"?>
<!DOCTYPE svg PUBLIC "-//W3C//DTD SVG 20010904//EN"
 "http://www.w3.org/TR/2001/REC-SVG-20010904/DTD/svg10.dtd">
<svg version="1.0" xmlns="http://www.w3.org/2000/svg"
 width="434.000000pt" height="434.000000pt" viewBox="0 0 434.000000 434.000000"
 preserveAspectRatio="xMidYMid meet">
<metadata>
Created by potrace 1.11, written by Peter Selinger 2001-2013
</metadata>
<g transform="translate(0.000000,434.000000) scale(0.100000,-0.100000)"
fill="#000000" stroke="none">
<path d="M569 3929 c-19 -3 -40 -8 -46 -12 -21 -13 -498 -578 -508 -602 -7
-15 -10 -510 -10 -1437 0 -1343 1 -1415 18 -1441 10 -16 29 -32 42 -37 13 -5
205 -9 426 -9 322 0 408 3 433 14 17 8 126 106 241 220 l210 205 5 250 5 250
129 -170 c71 -94 140 -180 154 -191 24 -18 44 -19 469 -19 263 0 452 4 462 10
10 5 56 55 102 112 46 57 86 105 89 108 3 3 40 49 84 103 43 54 81 95 84 92 3
-3 6 -119 7 -257 2 -139 3 -260 4 -269 2 -24 421 -435 458 -450 30 -11 818
-11 849 1 13 5 32 22 42 38 16 28 17 111 16 1443 -1 778 -2 1419 -3 1425 0 7
-40 59 -88 116 -211 251 -402 474 -421 491 -18 17 -48 18 -393 18 -206 1 -386
-2 -402 -6 -20 -6 -80 -74 -243 -279 -119 -149 -228 -287 -244 -306 -15 -19
-101 -127 -190 -240 -89 -113 -167 -209 -172 -215 -10 -10 -23 2 -80 75 -34
43 -239 302 -278 350 -15 19 -120 152 -233 295 -275 347 -254 325 -313 326
-296 4 -678 3 -705 -2z m507 -205 c-4 -9 -229 -328 -243 -344 -10 -10 -504 -5
-501 5 2 6 68 87 148 181 l144 169 228 0 c165 0 227 -3 224 -11z m2785 -159
c80 -94 148 -175 151 -180 4 -7 -79 -10 -248 -10 l-253 0 -100 140 c-54 77
-111 155 -125 174 -14 18 -24 36 -22 40 3 3 105 6 228 6 l225 0 144 -170z
m-2524 33 c26 -35 55 -72 65 -83 16 -19 537 -674 606 -762 l33 -42 -137 -171
c-75 -93 -139 -170 -143 -170 -3 1 -60 67 -126 147 -66 81 -185 226 -264 322
-80 97 -183 223 -230 281 -47 58 -88 107 -91 110 -3 3 -13 15 -24 27 -18 22
-18 23 80 160 133 188 174 243 179 243 2 0 25 -28 52 -62z m1858 -124 c72
-101 130 -190 129 -197 -1 -10 -203 -272 -1079 -1397 -110 -141 -212 -272
-227 -291 -15 -19 -85 -108 -155 -198 -70 -91 -132 -166 -138 -167 -5 -2 -62
67 -125 153 -63 85 -120 160 -125 167 -6 6 -119 155 -250 330 -132 176 -254
334 -271 353 -34 36 -72 43 -118 22 -55 -25 -54 -9 -54 -849 0 -426 -1 -783
-1 -793 -1 -16 -20 -17 -288 -15 l-288 3 -1 1291 -1 1291 316 0 316 0 65 -79
c36 -44 72 -87 80 -96 8 -9 31 -37 50 -62 19 -25 37 -47 40 -50 7 -5 241 -290
473 -574 157 -192 167 -202 209 -210 45 -8 82 24 205 179 192 243 295 371 564
710 140 176 270 340 289 365 19 25 37 47 40 50 3 3 49 60 103 128 54 67 101
122 105 121 4 0 66 -83 137 -185z m941 -1591 l1 -1293 -289 0 -288 0 -1 33 c0
17 -1 379 -2 802 -2 710 -3 773 -19 797 -19 29 -63 43 -107 33 -30 -6 -70 -53
-366 -420 -49 -60 -91 -112 -94 -115 -4 -3 -62 -75 -130 -160 -69 -85 -127
-157 -130 -160 -4 -3 -50 -60 -104 -127 l-99 -123 -290 0 -290 0 34 42 c19 24
176 225 349 448 173 223 320 412 326 420 18 21 172 219 245 314 33 43 66 86
74 95 7 9 113 144 235 301 122 157 243 312 269 346 l48 61 313 -1 314 -1 1
-1292z m-776 -579 l0 -576 -98 96 -98 96 -2 357 -2 358 97 122 c54 67 99 122
101 123 1 0 2 -259 2 -576z m-2270 418 l92 -124 0 -339 0 -340 -54 -51 c-29
-28 -74 -71 -100 -96 l-48 -45 0 569 c0 326 4 564 9 559 5 -6 50 -66 101 -133z"/>
</g>
</svg>
