<?xml version="1.0" standalone="no"?>
<!DOCTYPE svg PUBLIC "-//W3C//DTD SVG 20010904//EN"
 "http://www.w3.org/TR/2001/REC-SVG-20010904/DTD/svg10.dtd">
<svg version="1.0" xmlns="http://www.w3.org/2000/svg"
 width="1000.000000pt" height="1000.000000pt" viewBox="0 0 1000.000000 1000.000000"
 preserveAspectRatio="xMidYMid meet">
<metadata>
Created by potrace 1.11, written by Peter Selinger 2001-2013
</metadata>
<g transform="translate(0.000000,1000.000000) scale(0.100000,-0.100000)"
fill="#000000" stroke="none">
<path d="M1343 8963 c-55 -19 -81 -44 -269 -268 -226 -268 -557 -660 -613
-725 -45 -51 -189 -222 -267 -316 -68 -81 -62 197 -62 -3285 0 -2560 2 -3171
13 -3202 19 -57 59 -102 112 -128 l48 -24 913 0 c692 0 924 3 956 12 47 14 52
19 393 349 131 127 267 259 303 293 244 233 314 307 333 350 19 44 20 65 20
584 0 422 3 535 12 525 7 -7 51 -65 99 -128 47 -63 89 -119 94 -125 4 -5 97
-128 207 -273 109 -145 214 -276 233 -292 19 -15 51 -32 71 -37 20 -5 473 -9
1006 -8 l970 1 50 28 c51 28 63 42 683 809 67 84 126 153 130 154 4 2 8 -267
9 -597 2 -564 3 -603 21 -643 18 -40 101 -127 352 -368 41 -39 191 -185 333
-323 154 -150 279 -263 310 -281 l52 -30 926 0 926 0 48 30 c55 34 80 65 100
121 21 61 21 6326 0 6399 -13 46 -60 110 -178 245 -12 14 -135 158 -272 320
-138 162 -260 306 -271 320 -12 14 -73 86 -136 160 -253 302 -269 319 -316
342 l-47 23 -845 0 -845 0 -43 -23 c-36 -19 -129 -131 -523 -625 -264 -331
-488 -611 -497 -622 -9 -11 -33 -40 -52 -65 -19 -25 -42 -54 -51 -65 -20 -24
-569 -712 -666 -835 -37 -47 -80 -100 -95 -117 l-27 -33 -142 178 c-77 97
-153 192 -167 211 -15 18 -103 129 -195 245 -200 250 -182 228 -347 436 -72
91 -136 172 -143 180 -152 188 -791 997 -812 1029 -35 52 -67 77 -120 95 -58
20 -1662 19 -1722 -1z m1214 -437 c3 -3 -8 -22 -24 -43 -16 -21 -144 -198
-283 -393 -139 -195 -255 -357 -257 -360 -6 -6 -1153 -7 -1153 0 1 5 91 114
192 231 25 30 119 140 208 244 89 105 186 219 217 255 l56 65 71 5 c91 6 967
3 973 -4z m5903 4 c20 0 51 -30 145 -142 170 -200 481 -566 521 -612 18 -22
32 -42 29 -45 -2 -3 -260 -6 -575 -6 -495 0 -572 2 -580 15 -4 8 -20 31 -34
50 -14 19 -100 139 -190 265 -91 127 -172 239 -180 250 -8 11 -47 65 -86 120
l-71 100 38 5 c28 4 768 4 983 0z m-1353 -305 c55 -77 37 -52 287 -402 119
-167 217 -306 218 -311 2 -7 -179 -251 -202 -272 -3 -3 -25 -32 -50 -65 -25
-33 -47 -62 -51 -65 -3 -3 -18 -23 -35 -45 -16 -22 -37 -49 -46 -60 -12 -15
-1124 -1443 -1353 -1739 -17 -21 -43 -55 -60 -76 -16 -21 -55 -70 -85 -110
-30 -39 -75 -97 -100 -129 -68 -87 -90 -114 -216 -276 -64 -82 -127 -163 -140
-180 -13 -16 -156 -201 -318 -410 -163 -209 -378 -486 -479 -615 -101 -129
-248 -319 -327 -422 -80 -103 -147 -187 -150 -188 -3 0 -21 20 -40 45 -19 25
-40 51 -45 58 -6 7 -100 131 -210 277 -109 146 -253 337 -320 425 -67 88 -287
381 -490 650 -671 890 -638 848 -686 873 -115 58 -244 17 -305 -98 -18 -34
-19 -99 -21 -1825 -1 -984 -2 -1794 -2 -1800 -1 -8 -988 -12 -1276 -6 l-30 1
0 2910 0 2910 712 0 712 0 38 -47 c21 -27 40 -50 43 -53 3 -3 89 -106 190
-230 190 -232 772 -940 802 -975 9 -11 136 -166 283 -345 147 -179 282 -343
300 -365 206 -251 289 -346 321 -366 45 -27 127 -36 178 -19 67 22 66 20 611
709 72 90 137 171 145 181 8 10 27 33 41 51 15 19 129 162 254 319 124 157
360 453 523 659 163 205 325 408 358 450 132 165 620 780 644 811 14 18 30 38
35 44 6 6 59 72 119 147 l109 137 35 -52 c20 -28 55 -78 79 -111z m-3812 -210
c153 -192 296 -373 319 -401 23 -29 80 -101 127 -160 47 -60 192 -242 321
-404 225 -284 621 -783 640 -806 6 -8 -31 -62 -109 -160 -64 -82 -120 -151
-123 -154 -3 -3 -28 -34 -56 -70 -28 -36 -114 -145 -191 -242 l-140 -177 -74
91 c-41 51 -90 111 -109 134 -19 23 -49 59 -66 80 -62 76 -377 460 -414 504
-21 25 -141 171 -267 325 -126 154 -341 416 -478 583 -138 167 -258 315 -269
328 -19 25 -18 25 20 82 21 31 41 59 45 62 3 3 28 37 55 76 46 67 92 133 316
447 48 67 104 146 124 175 21 29 41 49 45 45 3 -5 131 -165 284 -358z m6129
-3643 c-1 -1596 -4 -2905 -7 -2909 -4 -3 -297 -6 -652 -7 l-645 -1 -1 25 c0
14 -1 819 -1 1790 -1 1144 -5 1776 -11 1797 -26 84 -114 146 -208 146 -81 1
-134 -29 -200 -111 -29 -37 -61 -76 -71 -87 -9 -11 -90 -110 -179 -220 -89
-110 -176 -218 -194 -240 -19 -22 -124 -152 -235 -290 -111 -137 -209 -259
-219 -270 -9 -11 -43 -54 -76 -95 -33 -41 -68 -84 -77 -95 -9 -11 -81 -99
-159 -195 -78 -96 -156 -193 -175 -215 -18 -22 -143 -177 -279 -345 -136 -168
-255 -314 -266 -325 -19 -20 -33 -20 -668 -20 -433 0 -647 3 -643 10 6 10 541
699 1106 1425 338 434 347 445 435 561 36 46 67 86 70 89 3 3 35 43 71 90 35
47 67 87 70 90 3 3 34 43 70 90 35 47 70 92 77 100 16 19 276 353 311 400 15
20 113 145 217 279 199 255 267 343 374 482 36 46 67 86 70 89 3 3 26 32 51
65 25 33 50 65 55 71 6 6 136 174 290 373 l280 361 710 -3 710 -2 -1 -2903z
m-1751 -1310 c3 -1287 3 -1292 -17 -1274 -10 9 -75 71 -144 137 -68 66 -160
155 -204 197 l-80 77 -4 806 -4 807 32 41 c18 23 37 47 43 53 5 6 91 111 189
232 99 122 181 221 182 219 2 -1 5 -584 7 -1295z m-5113 958 l215 -285 1 -765
1 -765 -156 -154 c-86 -84 -188 -185 -227 -223 l-71 -69 0 1284 c0 937 3 1282
11 1274 6 -7 108 -140 226 -297z"/>
</g>
</svg>
