<svg xmlns="http://www.w3.org/2000/svg" viewBox="0 0 388.06 88.45"><defs><style>.cls-1{fill:#df0070;}</style></defs><title>Artboard 1</title><g id="logo"><path id="_Compound_Path_" data-name="&lt;Compound Path&gt;" class="cls-1" d="M108.18,16.37a2.44,2.44,0,0,0-.57-1.58L95.81.86A2.48,2.48,0,0,0,93.94,0H76.34a2.42,2.42,0,0,0-1.9.94l0,0L54,26.55l-20-25.14,0-.08A2.44,2.44,0,0,0,31.85,0H14.24a2.45,2.45,0,0,0-1.86.86L.58,14.79A2.45,2.45,0,0,0,0,16.37V86a2.44,2.44,0,0,0,2.44,2.44H21.88a2.4,2.4,0,0,0,1.7-.69h0l10-9.67a2.45,2.45,0,0,0,.74-1.75V64.72L41,73.55a2.42,2.42,0,0,0,1.82,1v0H63.67a2.44,2.44,0,0,0,1.89-.91l8.37-10.29.06,13a2.47,2.47,0,0,0,.74,1.74l9.52,9.24a3.33,3.33,0,0,0,2,1.12h19.44A2.44,2.44,0,0,0,108.18,86V16.37ZM92.81,4.89l7.66,9H87.56l-6.47-9ZM31.9,6.57l19,23.9-7,8.82L25,16.27ZM15.38,4.89H27.09l-6.46,9H7.72Zm14,70.41-5.07,4.93V51.52l5.07,6.72ZM23.84,42.75a2.47,2.47,0,0,0-2.73-.84,2.44,2.44,0,0,0-1.67,2.32V83.56H4.89V18.82H20.73L42.05,44.73a2.47,2.47,0,0,0,1.89.89h0a2.47,2.47,0,0,0,1.89-.92L76.23,6.5l7,9.81L42.94,68.06Zm60,37.38-5-4.83-.09-17.95,5.07-6.24Zm19.44,3.43H88.74V44.23a2.44,2.44,0,0,0-4.34-1.54l-21.9,27H47.91L87.49,18.82H103.3Z"/></g><g id="typing"><g id="_Group_" data-name="&lt;Group&gt;"><path id="_Path_" data-name="&lt;Path&gt;" d="M162.36,16.08a10,10,0,0,0-7.5,3.17,7.72,7.72,0,0,0-6.64-3.17,8.33,8.33,0,0,0-6.25,2.6V16.37h-6.1v25h6.25V26.27a4.53,4.53,0,0,1,1.34-3.55,4,4,0,0,1,2.84-1,4,4,0,0,1,2.79,1,4.49,4.49,0,0,1,1.34,3.55V41.41h6.25V26.13a4.31,4.31,0,0,1,1.4-3.46,4.08,4.08,0,0,1,2.79-1,3.92,3.92,0,0,1,2.78,1A4.5,4.5,0,0,1,165,26.27V41.41h6.25v-16a9.62,9.62,0,0,0-2.74-7.12A8.35,8.35,0,0,0,162.36,16.08Z"/><path id="_Compound_Path_2" data-name="&lt;Compound Path&gt;" d="M186.36,16.32a15.61,15.61,0,0,0-5.24.72,10.29,10.29,0,0,0-3.94,2.7l4,3.84a6.29,6.29,0,0,1,4.91-2,5.72,5.72,0,0,1,3.6.91,3.66,3.66,0,0,1,1.11,3v1.26h-6a9.66,9.66,0,0,0-6.59,2.06,6.65,6.65,0,0,0-2.11,5.1,7.53,7.53,0,0,0,2.11,5.57c1.48,1.45,3.62,2.17,6.44,2.17A8.54,8.54,0,0,0,191,39.25v2.12h6.2V25.07Q197.17,16.32,186.36,16.32Zm4.47,15.91a4.19,4.19,0,0,1-.91,3.13,5.73,5.73,0,0,1-4,1.2q-3.66,0-3.66-2.84c0-1.86,1.19-2.78,3.56-2.78h5Z"/><path id="_Path_2" data-name="&lt;Path&gt;" d="M205.83,34.25a7.16,7.16,0,0,0,1.73,4.9,6.93,6.93,0,0,0,5.53,2.26h3.41V36.13h-2.26c-1.44,0-2.16-.76-2.16-2.26v-12h4.42V17.09h-4.42V9.69h-6.25v7.4h-2.64v4.76h2.64Z"/><path id="_Compound_Path_3" data-name="&lt;Compound Path&gt;" d="M230.77,16.25a9.94,9.94,0,0,0-7.83,3.32q-3,3.41-3,9.37,0,12.73,11.49,12.74a13,13,0,0,0,9.47-3.9l-3.8-3.7a7.58,7.58,0,0,1-5.62,2.36A5.2,5.2,0,0,1,227.65,35a5.3,5.3,0,0,1-1.54-3.61h-.05v-.48h15.58V28.12a12.53,12.53,0,0,0-2.84-8.51A10.1,10.1,0,0,0,230.77,16.25Zm-4.71,10.38a7.28,7.28,0,0,1,.58-2.64,4.16,4.16,0,0,1,4.13-2.6A4.27,4.27,0,0,1,235,24a8.49,8.49,0,0,1,.57,2.64Z"/><path id="_Path_3" data-name="&lt;Path&gt;" d="M253.29,18.77v-2.4h-6.1v25h6.25V26.32a4.74,4.74,0,0,1,1.3-3.51,3.79,3.79,0,0,1,2.74-1.1,4.56,4.56,0,0,1,3.31,1.49l4.71-4.76a8,8,0,0,0-5.91-2.36A7.8,7.8,0,0,0,253.29,18.77Z"/><rect id="_Path_4" data-name="&lt;Path&gt;" x="269.97" y="7.09" width="6.39" height="5.1"/><rect id="_Path_5" data-name="&lt;Path&gt;" x="270.06" y="16.47" width="6.25" height="25.04"/><path id="_Compound_Path_4" data-name="&lt;Compound Path&gt;" d="M293.43,16.35a15.65,15.65,0,0,0-5.24.72,10.33,10.33,0,0,0-3.94,2.69l4,3.85a6.27,6.27,0,0,1,4.9-2,5.67,5.67,0,0,1,3.61.91,3.67,3.67,0,0,1,1.1,3v1.25h-6a9.63,9.63,0,0,0-6.58,2.07,6.64,6.64,0,0,0-2.12,5.09,7.55,7.55,0,0,0,2.12,5.58q2.2,2.16,6.44,2.16a8.57,8.57,0,0,0,6.25-2.35v2.11h6.2V25.1Q304.25,16.34,293.43,16.35Zm4.47,15.91c0,1.54-.3,2.58-.91,3.12a5.73,5.73,0,0,1-4,1.2c-2.44,0-3.65-.94-3.65-2.83S290.53,31,292.9,31h5Z"/><path id="_Path_6" data-name="&lt;Path&gt;" d="M316,33.87V7.19h-6.25V34.25a7.16,7.16,0,0,0,1.73,4.9,7,7,0,0,0,5.58,2.26h3.56V36.13h-2.41A2,2,0,0,1,316,33.87Z"/><rect id="_Path_7" data-name="&lt;Path&gt;" x="327.38" y="16.47" width="6.25" height="25.04"/><rect id="_Path_8" data-name="&lt;Path&gt;" x="327.29" y="7.09" width="6.39" height="5.1"/><polygon id="_Path_9" data-name="&lt;Path&gt;" points="341.07 22.09 351.55 22.09 340.44 36.75 340.44 41.51 359.53 41.51 359.53 35.89 348.28 35.89 359.53 21.23 359.53 16.47 341.07 16.47 341.07 22.09"/><path id="_Compound_Path_5" data-name="&lt;Compound Path&gt;" d="M372.48,30.74v-.09h15.58V27.86a12.53,12.53,0,0,0-2.84-8.51,10.1,10.1,0,0,0-8-3.36,9.93,9.93,0,0,0-7.83,3.31q-3,3.42-3,9.38,0,12.74,11.49,12.73a13,13,0,0,0,9.47-3.89l-3.8-3.7a7.57,7.57,0,0,1-5.62,2.35,5.2,5.2,0,0,1-3.85-1.44,5.27,5.27,0,0,1-1.54-3.6h0v-.39Zm.58-7a4.15,4.15,0,0,1,4.13-2.6,4.25,4.25,0,0,1,4.19,2.6,8.49,8.49,0,0,1,.57,2.64h-9.47A7.28,7.28,0,0,1,373.06,23.73Z"/><path id="_Path_10" data-name="&lt;Path&gt;" d="M141.92,74.86V50h-5.83V75.22a6.65,6.65,0,0,0,1.62,4.57,6.51,6.51,0,0,0,5.2,2.11h3.32V77H144A1.85,1.85,0,0,1,141.92,74.86Z"/><path id="_Compound_Path_6" data-name="&lt;Compound Path&gt;" d="M158.88,58.49a14.49,14.49,0,0,0-4.89.67,9.73,9.73,0,0,0-3.68,2.51l3.77,3.59a5.87,5.87,0,0,1,4.57-1.88,5.29,5.29,0,0,1,3.37.85,3.43,3.43,0,0,1,1,2.78v1.17h-5.56a9.06,9.06,0,0,0-6.15,1.92,6.24,6.24,0,0,0-2,4.76,7,7,0,0,0,2,5.2,8.24,8.24,0,0,0,6,2,8,8,0,0,0,5.83-2.2v2H169V66.65Q169,58.49,158.88,58.49Zm4.17,14.84a3.9,3.9,0,0,1-.85,2.92,5.33,5.33,0,0,1-3.73,1.12q-3.41,0-3.4-2.65c0-1.73,1.1-2.6,3.31-2.6h4.67Z"/><path id="_Compound_Path_7" data-name="&lt;Compound Path&gt;" d="M186.24,58.31a7.24,7.24,0,0,0-5.65,2.33V50H174.8V82l5.55.09c.6.12,5.23.18,5.89.18a7.53,7.53,0,0,0,5.65-2.11q2.37-2.37,2.38-9.91t-2.38-9.82A7.53,7.53,0,0,0,186.24,58.31ZM187.81,75a3.29,3.29,0,0,1-3.28,2h-4.05l.15-5.69c0-.36,0-.72,0-1.08a12.13,12.13,0,0,1,.67-4.76,3.75,3.75,0,0,1,6.55,0,12.32,12.32,0,0,1,.67,4.76A12.46,12.46,0,0,1,187.81,75Z"/><path id="_Path_11" data-name="&lt;Path&gt;" d="M210.59,67.68l-3.68-.36c-1.61-.14-2.42-.82-2.42-2,0-1.5,1.11-2.25,3.32-2.25,2.45,0,4.26.53,5.43,1.57L216.82,61c-1.94-1.82-4.91-2.74-8.92-2.74a10.14,10.14,0,0,0-6.28,1.89,6.61,6.61,0,0,0-2.74,5.56q0,5.88,6.82,6.55l3.68.36c1.64.15,2.47.86,2.47,2.15q0,2.42-4.13,2.42a8.4,8.4,0,0,1-6.23-2.2l-3.82,3.82q3.38,3.36,10,3.36a12.06,12.06,0,0,0,7-1.88,6.59,6.59,0,0,0,2.87-5.74Q217.54,68.36,210.59,67.68Z"/></g></g></svg>