<svg xmlns="http://www.w3.org/2000/svg" viewBox="0 0 108.18 88.45"><title>Asset 1</title><g id="Layer_2" data-name="Layer 2"><g id="logo"><path id="_Compound_Path_" data-name="&lt;Compound Path&gt;" d="M108.18,16.37a2.44,2.44,0,0,0-.57-1.58L95.81.86A2.48,2.48,0,0,0,93.94,0H76.34a2.42,2.42,0,0,0-1.9.94l0,0L54,26.55l-20-25.14,0-.08A2.44,2.44,0,0,0,31.85,0H14.24a2.45,2.45,0,0,0-1.86.86L.58,14.79A2.45,2.45,0,0,0,0,16.37V86a2.44,2.44,0,0,0,2.44,2.44H21.88a2.4,2.4,0,0,0,1.7-.69h0l10-9.67a2.45,2.45,0,0,0,.74-1.75V64.72L41,73.55a2.42,2.42,0,0,0,1.82,1v0H63.67a2.44,2.44,0,0,0,1.89-.91l8.37-10.29.06,13a2.47,2.47,0,0,0,.74,1.74l9.52,9.24a3.33,3.33,0,0,0,2,1.12h19.44A2.44,2.44,0,0,0,108.18,86V16.37ZM92.81,4.89l7.66,9H87.56l-6.47-9ZM31.9,6.57l19,23.9-7,8.82L25,16.27ZM15.38,4.89H27.09l-6.46,9H7.72Zm14,70.41-5.07,4.93V51.52l5.07,6.72ZM23.84,42.75a2.47,2.47,0,0,0-2.73-.84,2.44,2.44,0,0,0-1.67,2.32V83.56H4.89V18.82H20.73L42.05,44.73a2.47,2.47,0,0,0,1.89.89h0a2.47,2.47,0,0,0,1.89-.92L76.23,6.5l7,9.81L42.94,68.06Zm60,37.38-5-4.83-.09-17.95,5.07-6.24Zm19.44,3.43H88.74V44.23a2.44,2.44,0,0,0-4.34-1.54l-21.9,27H47.91L87.49,18.82H103.3Z"/></g></g></svg>